<svg width="200" height="100" viewBox="0 0 200 100" fill="none" xmlns="http://www.w3.org/2000/svg">
<path fill-rule="evenodd" clip-rule="evenodd" d="M150.513 46.8184C149.14 46.8184 148.027 47.9579 148.027 49.3638C148.027 50.7697 149.14 51.9093 150.513 51.9093C151.887 51.9093 153 50.7697 153 49.3638C153 47.9579 151.887 46.8184 150.513 46.8184ZM52.9734 49.3638C52.9734 50.7697 51.86 51.9093 50.4866 51.9093C49.1134 51.9093 48 50.7697 48 49.3638C48 47.9579 49.1134 46.8184 50.4866 46.8184C51.86 46.8184 52.9734 47.9579 52.9734 49.3638Z" fill="black"/>
<path fill-rule="evenodd" clip-rule="evenodd" d="M128.321 43H131.948L134.463 53.5492H135.283L137.78 43H141.333L137.626 57H132.046L128.321 43ZM116.795 57H120.26V43H116.795V57ZM108.701 46.2157H104.714V57H101.248V46.2157H97.2805V43H108.701V46.2157ZM85.4319 49.1767C86.792 49.1767 87.3136 48.6667 87.3136 47.6669C87.3136 46.6668 86.792 46.1764 85.4319 46.1764H82.9729V49.1767H85.4319ZM85.8796 43C89.0279 43 90.8532 44.6864 90.8532 47.6079C90.8532 50.5687 89.0279 52.2943 85.8796 52.2943H82.9729V57H79.5077V43H85.8796ZM64.7337 50.5098H67.6963L66.6338 46.4514H65.8147L64.7337 50.5098ZM72.8753 57H69.4286L68.4601 53.3724H63.9884L63.0388 57H59.6665L63.6532 43H68.8882L72.8753 57Z" fill="black"/>
</svg>
