<svg width="120" height="60" viewBox="0 0 120 60" fill="none" xmlns="http://www.w3.org/2000/svg">
<path fill-rule="evenodd" clip-rule="evenodd" d="M49.3354 26.3022L92.4328 28.8728V28.883H28.822C28.4752 28.883 28.3834 28.5668 28.6078 28.1689L29.0158 27.4651H29.2709C29.6789 27.4549 30.1175 27.1897 30.2501 26.8837L30.4337 26.4348C30.5561 26.1186 30.3317 25.8738 29.9237 25.884H29.9135L31.5966 22.9565H39.604C39.9509 22.9565 40.3792 22.6402 40.5628 22.2424L42.9702 17.2033C43.1028 16.8973 42.9804 16.6525 42.6744 16.6525H35.2585L34.5446 18.1622C34.3813 18.509 33.9631 18.7946 33.6163 18.7946H33.1164C32.7696 18.7946 32.6268 18.509 32.7901 18.1622L33.2083 17.2747C33.3714 16.9279 33.7897 16.6423 34.1365 16.6423H35.228L35.8502 15.5508C36.0236 15.2448 36.4112 15 36.7173 15H46.4486C46.7546 15 46.8872 15.2448 46.7444 15.5508L42.0011 25.8534L44.5207 26.0064C45.0001 25.3026 46.163 24.8742 47.3564 25.0169C48.3765 25.1496 49.1314 25.6698 49.3354 26.3022ZM38.788 26.8633L38.9716 26.4144C39.094 26.1084 38.8696 25.8636 38.4615 25.8636L37.2987 25.884C36.8906 25.8942 36.452 26.1594 36.3194 26.4654L36.1358 26.9143C36.0134 27.2305 36.2378 27.4753 36.6459 27.4651L37.8087 27.4447C38.2168 27.4345 38.6554 27.1693 38.788 26.8633ZM68.1146 23.4971L48.9069 18.5498C48.5805 18.4682 48.4479 18.1622 48.5907 17.8766L49.3557 16.4281C49.5087 16.1425 49.8862 15.9895 50.2126 16.0711L68.1146 23.4971ZM87.9445 26.9857L71.032 25.4964C70.7871 25.476 70.6851 25.2618 70.7973 25.0272L71.3787 23.8031C71.491 23.5685 71.7868 23.3848 72.0316 23.4053L87.9445 26.9857ZM68.492 25.0883L46.3976 23.1502C46.0712 23.1196 45.9284 22.8442 46.0711 22.5382L46.8362 20.9469C46.9892 20.6307 47.3666 20.3961 47.693 20.4267L68.492 25.0883ZM87.659 25.7616L72.9598 21.967C72.715 21.8956 72.6028 21.6712 72.715 21.4467L73.2964 20.3349C73.4087 20.1207 73.7045 19.9881 73.9493 20.0595L87.659 25.7616ZM18.7541 41.4499C18.7541 41.7151 18.8154 41.909 18.9174 42.011C19.0194 42.113 19.203 42.1742 19.4682 42.1742H25.0479V44.2551H17.6219C17.1221 44.2551 16.7242 44.1225 16.4386 43.8674C16.1428 43.6124 16 43.1942 16 42.6128V35.197C16 34.6156 16.1428 34.1871 16.4386 33.9219C16.7242 33.6669 17.1221 33.5343 17.6219 33.5343H24.9867V35.6152H19.4784C19.2132 35.6152 19.0194 35.6764 18.9174 35.7784C18.8052 35.8906 18.7541 36.0742 18.7541 36.3394V37.8288H24.8439V39.8179H18.7541V41.4499ZM31.5252 33.4221C32.0149 33.4221 32.4331 33.5037 32.7799 33.6567C33.1267 33.8097 33.4123 34.1566 33.6266 34.6665L37.6354 44.2449H34.7385L33.7796 41.7967H29.2607L28.3019 44.2449H25.4253L29.4138 34.6665C29.5055 34.4523 29.6075 34.2687 29.7095 34.1157C29.8115 33.9627 29.9441 33.8403 30.1074 33.7281C30.2604 33.6261 30.4542 33.5445 30.6888 33.4935C30.9234 33.4527 31.1988 33.4221 31.5252 33.4221ZM31.2906 36.3293L29.934 39.726H33.0961L31.7395 36.3293C31.7089 36.2477 31.6782 36.166 31.6476 36.0947C31.6171 36.0334 31.5762 35.9927 31.5252 35.9927C31.4742 35.9927 31.4233 36.0232 31.3926 36.0947C31.3519 36.1763 31.3213 36.2477 31.2906 36.3293ZM46.3773 38.808C46.6629 38.9712 46.8873 39.1752 47.0709 39.4098C47.2443 39.6444 47.3769 39.93 47.4585 40.2769C47.5401 40.6033 47.5809 40.9807 47.5809 41.4193C47.5809 41.8477 47.5299 42.2354 47.4483 42.5822C47.3667 42.929 47.2239 43.235 47.0403 43.4798C46.8465 43.7348 46.5915 43.9287 46.2854 44.0613C45.9794 44.1939 45.5918 44.2653 45.1328 44.2653H38.0638V42.1232H44.0005C44.1841 42.1232 44.327 42.0926 44.429 42.0416C44.5208 41.9906 44.6023 41.9192 44.6534 41.8477C44.7044 41.7661 44.735 41.6947 44.7452 41.603C44.7473 41.5841 44.7494 41.5661 44.7514 41.5488C44.7591 41.4822 44.7656 41.4272 44.7656 41.3785C44.7656 41.1949 44.7044 41.0317 44.5922 40.8787C44.48 40.7257 44.2657 40.6033 43.9393 40.5013L39.7469 39.2466C39.043 39.0426 38.5738 38.6754 38.3188 38.1551C38.0536 37.6349 37.9312 36.9923 37.9312 36.2374C37.9312 35.8396 37.9822 35.4724 38.074 35.1358C38.1658 34.7992 38.3086 34.5136 38.5127 34.2789C38.7064 34.0443 38.9615 33.8607 39.2776 33.7281C39.5939 33.6057 39.9713 33.5343 40.4201 33.5343H47.0301V35.6764H41.4912C41.2872 35.6764 41.1036 35.7274 40.9608 35.8192C40.8078 35.9212 40.7364 36.1048 40.7364 36.3803C40.7364 36.5843 40.7976 36.7679 40.92 36.9107C41.0424 37.0637 41.2668 37.1861 41.5932 37.2881L45.3572 38.3898C45.7551 38.5121 46.0917 38.6448 46.3773 38.808ZM50.4779 33.5445L53.4871 38.6652L56.4962 33.5445H59.4442L54.854 41.1337V44.2551H52.11V41.1337L47.5401 33.5445H50.4779ZM63.1878 41.3887C63.1878 41.654 63.249 41.8477 63.351 41.9497C63.453 42.0518 63.6366 42.113 63.9018 42.113H69.4101V44.2551H62.0555C61.5557 44.2551 61.1579 44.1225 60.8722 43.8674C60.5764 43.6124 60.4336 43.1942 60.4336 42.6128V33.5445H63.1878V41.3887ZM77.8357 33.6465C78.5602 33.7995 79.1518 34.0851 79.6007 34.4932C80.0496 34.9012 80.3757 35.452 80.5696 36.166C80.7635 36.8801 80.8651 37.7879 80.8651 38.8998C80.8651 40.0219 80.7635 40.9399 80.5696 41.6437C80.3757 42.3578 80.0496 42.9188 79.6007 43.3166C79.1412 43.7247 78.5602 44.0001 77.8357 44.1531C77.1118 44.3061 76.2241 44.3775 75.1735 44.3775C74.1228 44.3775 73.2353 44.3061 72.5111 44.1531C71.7766 44.0001 71.1953 43.7247 70.7464 43.3166C70.2976 42.9086 69.9711 42.3578 69.7774 41.6437C69.5835 40.9399 69.4815 40.0219 69.4815 38.8998C69.4815 37.7879 69.5835 36.8801 69.7774 36.166C69.9711 35.4622 70.2976 34.9012 70.7464 34.4932C71.1953 34.0851 71.7869 33.7995 72.5111 33.6465C73.2353 33.4935 74.1228 33.4221 75.1735 33.4221C76.2241 33.4221 77.1118 33.4935 77.8357 33.6465ZM77.4479 41.501C77.6724 41.2459 77.8257 40.9093 77.9174 40.4809C78.009 40.0525 78.0602 39.5322 78.0502 38.8998C78.0502 38.2674 78.009 37.7471 77.9174 37.3187C77.8257 36.8903 77.6624 36.5435 77.4479 36.2884C77.2341 36.0232 76.9379 35.8396 76.5707 35.7274C76.2035 35.6254 75.7446 35.5642 75.1835 35.5642C74.6124 35.5642 74.1534 35.6152 73.7862 35.7274C73.419 35.8396 73.1231 36.0232 72.9089 36.2884C72.6845 36.5537 72.5315 36.9005 72.4397 37.3187C72.3479 37.7369 72.3071 38.2674 72.3071 38.8998C72.3071 39.5322 72.3479 40.0626 72.4397 40.4809C72.5315 40.8991 72.6845 41.2459 72.9089 41.501C73.1231 41.7661 73.419 41.9497 73.7862 42.062C74.1534 42.1742 74.6226 42.2252 75.1835 42.2252C75.7346 42.2252 76.2035 42.1742 76.5707 42.062C76.9379 41.9497 77.2235 41.7661 77.4479 41.501ZM87.0573 33.4221C87.5468 33.4221 87.9651 33.5037 88.3118 33.6567C88.6584 33.8097 88.934 34.1566 89.1684 34.6665L93.1773 44.2449H90.2806L89.3218 41.7967H84.8029L83.8334 44.2449H80.9574L84.9457 34.6665C85.0373 34.4523 85.1396 34.2687 85.2412 34.1157C85.3435 33.9627 85.4762 33.8403 85.639 33.7281C85.7923 33.6261 85.9862 33.5445 86.2207 33.4935C86.4551 33.4527 86.7307 33.4221 87.0573 33.4221ZM86.8329 36.3293L85.4657 39.726H88.6484L87.2818 36.3293C87.2506 36.2477 87.2201 36.166 87.1895 36.0947C87.159 36.0334 87.1184 35.9927 87.0673 35.9927C87.0162 35.9927 86.9651 36.0232 86.9345 36.0947C86.894 36.1763 86.8634 36.2477 86.8329 36.3293ZM103.143 35.044C103.459 35.5234 103.684 36.0844 103.807 36.7373C103.929 37.3901 103.99 38.1144 104 38.8896C104 39.675 103.939 40.3891 103.827 41.0419C103.704 41.6947 103.49 42.266 103.174 42.7352C102.848 43.2146 102.419 43.5818 101.868 43.8471C101.317 44.1123 100.614 44.2449 99.7567 44.2449H95.3195C94.8195 44.2449 94.4217 44.1123 94.1362 43.8573C93.8406 43.6022 93.6979 43.184 93.6979 42.6026V35.1868C93.6979 34.6053 93.8406 34.1871 94.1362 33.9219C94.4217 33.6669 94.8195 33.5343 95.3195 33.5343H99.6139C100.512 33.5343 101.236 33.6669 101.807 33.9321C102.378 34.1973 102.817 34.5748 103.143 35.044ZM100.43 41.4703C100.695 41.2357 100.879 40.8991 101.001 40.4911C101.124 40.0831 101.174 39.5526 101.174 38.8896C101.174 38.2368 101.113 37.6961 101.001 37.2881C100.889 36.8801 100.695 36.5537 100.43 36.3088C100.165 36.064 99.8178 35.9008 99.4 35.809C98.9817 35.7274 98.4611 35.6764 97.8495 35.6764H97.2167C96.9212 35.6764 96.7273 35.7274 96.6151 35.8396C96.5028 35.9416 96.4517 36.1457 96.4517 36.4414V41.3377C96.4517 41.6335 96.5028 41.8376 96.6151 41.9396C96.7173 42.0518 96.9212 42.1028 97.2167 42.1028H97.8495C98.4611 42.1028 98.9711 42.062 99.4 41.9702C99.8178 41.8783 100.165 41.7151 100.43 41.4703Z" fill="black"/>
</svg>
