<svg width="200" height="100" viewBox="0 0 200 100" fill="none" xmlns="http://www.w3.org/2000/svg">
<path d="M99.62 25.58C92.4844 25.58 86.7031 31.3612 86.7031 38.4969C86.7031 45.6325 92.4844 51.4138 99.62 51.4138C106.756 51.4138 112.537 45.6325 112.537 38.4969C112.517 31.3814 106.735 25.6002 99.62 25.58V25.58ZM99.62 49.2711C93.677 49.2711 88.8661 44.4601 88.8661 38.5171C88.8661 32.5741 93.677 27.7631 99.62 27.7631C102.753 27.7631 105.745 29.1377 107.787 31.5229L102.875 35.7275C102.733 35.5658 102.571 35.4041 102.41 35.2626C100.611 33.7061 97.8816 33.9284 96.3453 35.7275C94.7888 37.5266 95.0112 40.2555 96.8102 41.7918C98.6093 43.3483 101.338 43.1259 102.875 41.3269L99.5998 38.5171H110.354C110.374 44.4398 105.563 49.2711 99.62 49.2711V49.2711Z" fill="black"/>
<path d="M99.6208 53.1118C91.5553 53.1118 85.0059 46.5623 85.0059 38.4969C85.0059 30.4314 91.5553 23.882 99.6208 23.882C107.666 23.9022 114.215 30.4516 114.236 38.4969C114.236 42.3982 112.72 46.0772 109.95 48.8263C107.181 51.5957 103.522 53.1118 99.6208 53.1118V53.1118ZM99.6208 24.4682C91.8787 24.4682 85.5719 30.7548 85.5719 38.4969C85.5719 46.2389 91.8585 52.5255 99.6005 52.5255C103.34 52.5255 106.878 51.0701 109.526 48.4221C112.174 45.774 113.629 42.2365 113.629 38.4969C113.629 30.775 107.343 24.4884 99.6208 24.4682V24.4682Z" fill="black"/>
<path d="M122.908 71.5875H123.554V75.5292H125.98V76.0952H122.908V71.5875ZM120.947 74.4377L119.977 72.2343L119.006 74.4377H120.947V74.4377ZM121.169 74.943H118.764L118.279 76.075H117.611L119.653 71.5875H120.28L122.321 76.075H121.654L121.169 74.943V74.943ZM116.904 71.5875V76.075H116.378L113.67 72.7195V76.075H113.023V71.5875H113.548L116.237 74.943V71.5875H116.904V71.5875ZM109.829 75.5495C110.132 75.5495 110.456 75.4686 110.718 75.3271C110.981 75.1856 111.183 74.9632 111.345 74.7005C111.648 74.1547 111.648 73.4876 111.345 72.9418C111.204 72.679 110.981 72.4769 110.718 72.3152C110.456 72.1535 110.132 72.0928 109.829 72.0928C109.526 72.0928 109.202 72.1737 108.94 72.3152C108.677 72.4567 108.454 72.679 108.313 72.9418C108.01 73.4876 108.01 74.1547 108.313 74.7005C108.454 74.9632 108.677 75.1654 108.94 75.3271C109.202 75.4888 109.506 75.5697 109.829 75.5495ZM109.829 76.1155C109.404 76.1155 108.98 76.0144 108.596 75.8122C108.232 75.6303 107.949 75.3271 107.747 74.9835C107.322 74.2557 107.322 73.3663 107.747 72.6386C107.949 72.295 108.252 72.012 108.596 71.8098C109.364 71.4055 110.274 71.4055 111.042 71.8098C111.406 71.9917 111.689 72.2747 111.891 72.6386C112.295 73.3663 112.295 74.2557 111.891 74.9835C111.689 75.3271 111.385 75.6101 111.042 75.8122C110.678 76.0346 110.253 76.1357 109.829 76.1155ZM105.887 71.5875H106.534V76.075H105.887V71.5875V71.5875ZM102.916 72.1332H101.379V71.5672H105.099V72.1332H103.563V76.075H102.936L102.916 72.1332V72.1332ZM100.45 74.4377L99.4793 72.2343L98.509 74.4377H100.45ZM100.672 74.943H98.2867L97.8015 76.075H97.1344L99.1761 71.5875H99.8027L101.844 76.075H101.177L100.672 74.943V74.943ZM96.4269 71.5875V76.075H95.9014L93.1927 72.7195V76.075H92.5458V71.5875H93.0714L95.7599 74.943V71.5875H96.4269V71.5875ZM89.8371 74.1547C90.1605 74.1749 90.5042 74.094 90.767 73.8919C90.9893 73.71 91.1106 73.427 91.0904 73.144C91.1106 72.861 90.9893 72.578 90.767 72.396C90.5042 72.2141 90.1605 72.113 89.8371 72.1332H88.7455V74.1547H89.8371ZM91.1106 76.075L90.1403 74.7005C90.019 74.7207 89.918 74.7207 89.8573 74.7207H88.7455V76.0952H88.0987V71.6077H89.8573C90.3425 71.5875 90.8276 71.729 91.2319 72.0322C91.5755 72.3152 91.7575 72.7397 91.7372 73.1844C91.7372 73.5078 91.6564 73.811 91.4745 74.0738C91.2925 74.3164 91.0297 74.5185 90.7467 74.5994L91.8181 76.1155H91.1106V76.075V76.075ZM87.2093 75.509V76.075H83.9548V71.5875H87.1284V72.1535H84.6016V73.528H86.8454V74.0738H84.6016V75.5292H87.2093V75.509V75.509ZM80.9631 72.1332H79.4268V71.5672H83.1462V72.1332H81.6099V76.075H80.9833L80.9631 72.1332V72.1332ZM78.6991 71.5875V76.075H78.1735L75.4648 72.7195V76.075H74.8179V71.5875H75.3435L78.032 74.943V71.5875H78.6991V71.5875ZM73.2412 71.5875H73.8881V76.075H73.2412V71.5875ZM121.755 56.5683H116.924L112.861 67.9691V60.4898H115.287V56.5683H106.11V60.5101H108.535V67.9893L104.533 56.5683H99.7219L95.9418 67.2212L93.9204 63.6635C95.4769 63.1783 96.245 62.1878 96.245 60.6718C96.245 59.7217 96.0429 58.9536 95.6588 58.3269C95.2545 57.7003 94.6481 57.2353 93.9608 56.9928C93.0714 56.6896 92.1213 56.5481 91.1915 56.5683H85.8953V61.4399H79.5076V64.2901H81.4078C81.3067 64.5933 81.1046 64.8763 80.8216 65.0583C80.5386 65.2402 80.1949 65.3413 79.8513 65.3413C79.2448 65.321 78.6788 65.038 78.3352 64.5327C77.9107 63.9869 77.6883 63.3198 77.7086 62.6325C77.6883 61.9453 77.9107 61.258 78.315 60.7122C78.6586 60.2068 79.2448 59.9036 79.8513 59.9036C80.5386 59.9036 81.1046 60.2473 81.5493 60.9346L85.3698 59.5196C84.8038 58.5493 83.9952 57.7609 83.0249 57.1949C82.0344 56.6289 80.9024 56.3257 79.7502 56.3459C78.6182 56.3459 77.5064 56.6289 76.5159 57.1949C75.5456 57.7407 74.7169 58.5291 74.1509 59.4791C72.9784 61.4197 72.9784 63.8656 74.1509 65.8062C74.7371 66.7563 75.5456 67.5446 76.5159 68.0904C77.5064 68.6564 78.6182 68.9394 79.7502 68.9394C80.8822 68.9394 81.994 68.6564 82.9845 68.0904C83.9548 67.5446 84.7835 66.7563 85.3495 65.8062C85.5719 65.4221 85.774 65.038 85.9155 64.6135V68.5553H90.201V64.4316L92.3032 68.5553H100.086L100.47 67.0393H103.724L104.108 68.5553H117.308L117.692 67.0393H120.947L121.331 68.5553H126L121.755 56.5683V56.5683ZM90.9085 62.0059H90.1605V59.6408H91.05C91.333 59.6408 91.616 59.7419 91.8181 59.9643C92.0202 60.1664 92.1213 60.4494 92.1213 60.7324C92.1213 61.5814 91.717 62.0059 90.9085 62.0059V62.0059ZM101.157 64.189L102.006 60.2068H102.087L102.956 64.189H101.157ZM118.38 64.189L119.229 60.2068H119.309L120.179 64.189H118.38Z" fill="black"/>
</svg>
