<svg width="200" height="100" viewBox="0 0 200 100" fill="none" xmlns="http://www.w3.org/2000/svg">
<path fill-rule="evenodd" clip-rule="evenodd" d="M159.351 49.7898V61.2857C159.351 61.9177 159.652 62.339 160.495 62.339H168.229V59.6305H162.571V57.3133H167.386V54.6951H162.571V52.4983H168.108V49.7898H159.351ZM87.7272 49.7898H84.5974V56.591L81.5579 50.9334C81.257 50.4218 80.8356 49.7898 79.5717 49.7898H77.3748V62.339H80.4143V55.4475L83.4538 61.1954C83.7548 61.8274 84.1761 62.339 85.44 62.339H87.7272V49.7898ZM134.343 53.7622C134.343 54.6048 133.711 55.1164 132.868 55.1164H131.093V52.408H132.868C133.831 52.408 134.343 52.9196 134.343 53.7622ZM127.873 49.7898V62.339H131.123V57.7346H133.229C135.727 57.7346 137.503 56.0794 137.503 53.6719C137.503 51.3547 135.938 49.7898 133.229 49.7898H127.873ZM121.553 53.7622C121.553 54.6048 120.921 55.1164 120.078 55.1164H117.881V52.408H120.078C120.921 52.408 121.553 52.9196 121.553 53.7622ZM114.661 49.7898V62.339H117.911V57.7346H119.386L121.493 62.339H125.164L122.546 57.223C123.81 56.591 124.743 55.3271 124.743 53.7622C124.743 51.144 122.847 49.7898 120.349 49.7898H114.661ZM102.564 49.7898V61.2857C102.564 61.9177 102.864 62.339 103.707 62.339H111.441V59.6305H105.784V57.3133H110.599V54.6951H105.784V52.4983H111.351V49.7898H102.564ZM139.489 49.7898C139.91 50.3014 140.001 51.0537 140.001 51.5653V62.339H143.552V49.7898H139.489ZM99.8551 49.7898H90.3454V52.4983H93.2645V62.3089H96.7253V52.4983H99.8551V49.7898ZM69.731 49.7898C69.9416 50.0907 70.1523 50.7227 70.1523 51.5653V62.339H73.7034V49.7898H69.731ZM153.753 53.7622C153.753 54.6048 153.121 55.1164 152.279 55.1164H150.503V52.408H152.279C153.212 52.408 153.753 52.9196 153.753 53.7622ZM147.253 49.7898V62.339H150.503V57.7346H152.58C155.078 57.7346 156.853 56.0794 156.853 53.6719C156.853 51.3547 155.288 49.7898 152.58 49.7898H147.253Z" fill="black"/>
<path fill-rule="evenodd" clip-rule="evenodd" d="M37.3197 62.61H31.7524C31.331 62.61 31 62.279 31 61.8577V51.0539C34.2201 53.4012 36.9285 57.4037 37.3197 62.61ZM53.8414 37H59.4389C59.8301 37 60.1912 37.331 60.1912 37.7524V48.7066C56.61 46.0583 54.1724 41.9354 53.8414 37ZM60.1611 49.3386V61.8577C60.1611 62.2489 59.8301 62.61 59.4088 62.61H37.8614C38.2828 56.832 41.3222 52.8896 44.9636 50.452C45.3548 50.1812 45.2345 49.8201 44.753 50.0909C42.1649 51.415 39.6972 51.8063 37.5906 51.8063C33.7085 51.8063 31 50.3918 31 50.3918V37.7524C31 37.3611 31.3009 37 31.7524 37H53.2997C52.9385 43.0188 49.5379 47.0514 46.1674 49.2483C45.8063 49.489 45.9266 49.8502 46.348 49.6395C49.0263 48.2552 51.4639 47.894 53.5404 47.894C57.3925 47.894 60.1611 49.3386 60.1611 49.3386Z" fill="black"/>
</svg>
