<svg width="120" height="60" viewBox="0 0 120 60" fill="none" xmlns="http://www.w3.org/2000/svg">
<path fill-rule="evenodd" clip-rule="evenodd" d="M4 19H24.3137L4 39.5883V34.9216L16.6275 22.2941H4V19ZM49.859 20.3945C48.1351 20.3945 46.7241 20.9326 45.6261 22.0087C44.539 23.0847 43.9955 24.4628 43.9955 26.1428C43.9955 27.8228 44.539 29.2008 45.6261 30.2769C46.7241 31.342 48.1351 31.8745 49.859 31.8745C51.583 31.8745 52.9885 31.342 54.0755 30.2769C55.1736 29.2008 55.7226 27.8228 55.7226 26.1428C55.7226 24.4628 55.1736 23.0847 54.0755 22.0087C52.9885 20.9326 51.583 20.3945 49.859 20.3945ZM49.859 29.931C48.783 29.931 47.9045 29.5796 47.2237 28.8769C46.543 28.1632 46.2026 27.2518 46.2026 26.1428C46.2026 25.0338 46.543 24.1224 47.2237 23.4087C47.9155 22.6949 48.7939 22.3381 49.859 22.3381C50.9241 22.3381 51.7971 22.6949 52.4779 23.4087C53.1696 24.1224 53.5155 25.0338 53.5155 26.1428C53.5155 27.2518 53.1751 28.1632 52.4943 28.8769C51.8135 29.5796 50.9351 29.931 49.859 29.931ZM38.6871 20.6416H36.5459V31.6275H42.08V29.7828H38.6871V20.6416ZM65.9925 31.6275L65.0207 29.3216H60.5902L59.6184 31.6275H57.296L62.0231 20.6416H63.7031L68.2984 31.6275H65.9925ZM64.3949 27.5757L62.8302 23.6228L61.2654 27.5757H64.3949ZM73.7646 20.6416H70.8987V31.6275H73.7316C74.5881 31.6275 75.3238 31.5561 75.9387 31.4134C76.5536 31.2706 77.1575 30.9906 77.7505 30.5734C79.2218 29.5412 79.9575 28.0643 79.9575 26.1428C79.9575 25.2314 79.7709 24.3914 79.3975 23.6228C79.0352 22.8541 78.5191 22.2173 77.8493 21.7122C77.2893 21.2949 76.6854 21.0149 76.0375 20.8722C75.3897 20.7185 74.632 20.6416 73.7646 20.6416ZM73.0399 29.7828V22.4863H73.6987C74.8516 22.4863 75.752 22.7279 76.3999 23.211C76.8281 23.5404 77.1575 23.9687 77.3881 24.4957C77.6297 25.0118 77.7505 25.5608 77.7505 26.1428C77.7505 26.7357 77.6297 27.2957 77.3881 27.8228C77.1465 28.3389 76.8116 28.7506 76.3834 29.0581C75.7136 29.5412 74.8187 29.7828 73.6987 29.7828H73.0399ZM90.3742 31.6275L89.4024 29.3216H84.9718L84 31.6275H81.6777L86.4047 20.6416H88.0847L92.68 31.6275H90.3742ZM88.7765 27.5757L87.2118 23.6228L85.6471 27.5757H88.7765ZM97.9486 29.7828L103.285 20.6416H95.2309V22.4863H99.7274L94.3909 31.6275H103.022V29.7828H97.9486ZM113.694 31.6275L112.722 29.3216H108.292L107.32 31.6275H104.998L109.725 20.6416H111.405L116 31.6275H113.694ZM112.097 27.5757L110.532 23.6228L108.967 27.5757H112.097ZM48.3707 39.8626H49.0427V36.7924L52.2314 40.1327V35.4682H51.5594V38.512L48.3707 35.1717V39.8626ZM46.8274 39.8626L46.3662 38.8018H44.4886L44.0076 39.8626H43.2829L45.4702 35.2113L47.5521 39.8626H46.8274ZM44.7653 38.1694H46.0961L45.4439 36.6804L44.7653 38.1694ZM38.1381 36.1007H39.1461V35.4682H36.4581V36.1007H37.4661V39.8626H38.1381V36.1007ZM40.7848 35.4682H40.0008V39.8626H40.6728V38.064H40.7914L42.0498 39.8626H42.8601L41.4897 37.9849C41.784 37.919 42.019 37.7763 42.1947 37.5567C42.3748 37.3371 42.4648 37.0713 42.4648 36.7595C42.4648 36.3027 42.2913 35.9579 41.9443 35.7251C41.6896 35.5538 41.3031 35.4682 40.7848 35.4682ZM40.6728 37.4842V36.0875H40.9034C41.5139 36.0875 41.8192 36.3137 41.8192 36.7661C41.8192 36.8978 41.7906 37.012 41.7335 37.1087C41.6808 37.2053 41.6171 37.2778 41.5425 37.3261C41.4722 37.37 41.3865 37.4051 41.2855 37.4315C41.1889 37.4578 41.112 37.4732 41.0549 37.4776C40.9978 37.482 40.9407 37.4842 40.8836 37.4842H40.6728ZM55.9873 36.127L55.4471 36.4433C55.4032 36.3378 55.3373 36.2456 55.2495 36.1665C55.1177 36.0611 54.9596 36.0084 54.7751 36.0084C54.5774 36.0084 54.4237 36.0589 54.3139 36.16C54.2085 36.261 54.1558 36.3862 54.1558 36.5355C54.1558 36.7639 54.3139 36.9418 54.6302 37.0691L55.0716 37.247C55.7611 37.5281 56.1059 37.9586 56.1059 38.5383C56.1059 38.9556 55.972 39.296 55.704 39.5595C55.4405 39.8186 55.1023 39.9482 54.6894 39.9482C54.2634 39.9482 53.9186 39.8011 53.6551 39.5068C53.4399 39.2652 53.3169 38.9797 53.2862 38.6503L53.9516 38.5054C53.9516 38.7162 54.0131 38.9029 54.136 39.0654C54.2766 39.2411 54.4676 39.3289 54.7092 39.3289C54.9156 39.3289 55.0869 39.2608 55.2231 39.1247C55.3636 38.9885 55.4339 38.8106 55.4339 38.591C55.4339 38.389 55.3746 38.2331 55.256 38.1233C55.1418 38.0135 54.9903 37.919 54.8014 37.84L54.3798 37.6621C53.7825 37.4117 53.4838 37.0406 53.4838 36.5487C53.4838 36.2324 53.598 35.9601 53.8264 35.7317C54.0592 35.5033 54.3732 35.3891 54.7685 35.3891C55.1243 35.3891 55.4185 35.488 55.6513 35.6856C55.7875 35.8086 55.8995 35.9557 55.9873 36.127ZM58.1787 35.4682H57.2103V39.8626H57.8823V38.0771H58.1853C58.6333 38.0771 58.9913 37.9629 59.2592 37.7346C59.5447 37.4886 59.6875 37.168 59.6875 36.7727C59.6875 36.5618 59.6391 36.362 59.5425 36.1731C59.4503 35.9799 59.3163 35.824 59.1406 35.7054C58.9035 35.5473 58.5828 35.4682 58.1787 35.4682ZM57.8823 37.4578V36.0875H58.1787C58.3588 36.0875 58.5104 36.1116 58.6333 36.16C58.7563 36.2039 58.8442 36.2654 58.8969 36.3444C58.954 36.4191 58.9913 36.4894 59.0089 36.5553C59.0308 36.6211 59.0418 36.6914 59.0418 36.7661C59.0418 36.9769 58.9693 37.146 58.8244 37.2734C58.6795 37.3964 58.4664 37.4578 58.1853 37.4578H57.8823ZM61.0807 36.0414C61.5155 35.6065 62.0601 35.3891 62.7145 35.3891C63.369 35.3891 63.9136 35.6065 64.3484 36.0414C64.7833 36.4762 65.0007 37.0186 65.0007 37.6687C65.0007 38.3187 64.7833 38.8611 64.3484 39.296C63.9136 39.7308 63.369 39.9482 62.7145 39.9482C62.0601 39.9482 61.5155 39.7308 61.0807 39.296C60.6458 38.8611 60.4284 38.3187 60.4284 37.6687C60.4284 37.0186 60.6458 36.4762 61.0807 36.0414ZM61.555 38.8677C61.8581 39.1752 62.2446 39.3289 62.7145 39.3289C63.1845 39.3289 63.571 39.1752 63.8741 38.8677C64.1771 38.5559 64.3287 38.1562 64.3287 37.6687C64.3287 37.1811 64.1771 36.7836 63.8741 36.4762C63.571 36.1644 63.1845 36.0084 62.7145 36.0084C62.2446 36.0084 61.8581 36.1644 61.555 36.4762C61.252 36.7836 61.1004 37.1811 61.1004 37.6687C61.1004 38.1562 61.252 38.5559 61.555 38.8677ZM66.8918 35.4682H66.1077V39.8626H66.7798V38.064H66.8983L68.1567 39.8626H68.967L67.5967 37.9849C67.891 37.919 68.1259 37.7763 68.3016 37.5567C68.4817 37.3371 68.5718 37.0713 68.5718 36.7595C68.5718 36.3027 68.3983 35.9579 68.0513 35.7251C67.7965 35.5538 67.41 35.4682 66.8918 35.4682ZM66.7798 37.4842V36.0875H67.0103C67.6208 36.0875 67.9261 36.3137 67.9261 36.7661C67.9261 36.8978 67.8976 37.012 67.8405 37.1087C67.7878 37.2053 67.7241 37.2778 67.6494 37.3261C67.5791 37.37 67.4935 37.4051 67.3925 37.4315C67.2958 37.4578 67.219 37.4732 67.1619 37.4776C67.1048 37.482 67.0477 37.4842 66.9906 37.4842H66.7798ZM72.1174 36.1007H71.1094V39.8626H70.4374V36.1007H69.4294V35.4682H72.1174V36.1007ZM78.2124 38.2484L77.7842 37.8004L77.2835 38.367L76.5061 37.4183C76.7564 37.2295 76.9387 37.0604 77.0529 36.911C77.1803 36.7397 77.2439 36.5487 77.2439 36.3378C77.2439 36.0831 77.1495 35.8613 76.9606 35.6724C76.7762 35.4836 76.5192 35.3891 76.1898 35.3891C75.8516 35.3891 75.5925 35.4902 75.4124 35.6922C75.2367 35.8898 75.1489 36.127 75.1489 36.4037C75.1489 36.72 75.2938 37.023 75.5837 37.3129C75.4827 37.3788 75.3663 37.46 75.2345 37.5567C75.0325 37.706 74.8766 37.8663 74.7668 38.0376C74.657 38.2089 74.6021 38.4263 74.6021 38.6898C74.6021 39.0544 74.7206 39.3553 74.9578 39.5924C75.195 39.8296 75.5156 39.9482 75.9197 39.9482C76.2755 39.9482 76.5961 39.8472 76.8816 39.6451C77.0134 39.5485 77.1363 39.4409 77.2505 39.3223L77.6853 39.8626H78.5023L77.6919 38.848L78.2124 38.2484ZM75.979 37.7938L76.8486 38.848C76.6817 39.0105 76.5456 39.1313 76.4402 39.2103C76.2689 39.3245 76.1042 39.3816 75.9461 39.3816C75.744 39.3816 75.5793 39.3179 75.4519 39.1906C75.3246 39.0588 75.2609 38.9007 75.2609 38.7162C75.2609 38.5142 75.3399 38.3275 75.498 38.1562C75.6166 38.0244 75.777 37.9036 75.979 37.7938ZM76.3611 36.7727L76.1173 36.9506L75.9197 36.7134C75.8187 36.5948 75.7682 36.4674 75.7682 36.3313C75.7682 36.2171 75.8055 36.1248 75.8802 36.0545C75.9548 35.9799 76.0581 35.9425 76.1898 35.9425C76.3348 35.9425 76.4424 35.9821 76.5126 36.0611C76.5873 36.1402 76.6246 36.2324 76.6246 36.3378C76.6246 36.5047 76.5368 36.6497 76.3611 36.7727ZM81.0973 35.4682H81.7693V39.2301H83.0606V39.8626H81.0973V35.4682ZM85.8295 35.3891C85.1751 35.3891 84.6304 35.6065 84.1956 36.0414C83.7608 36.4762 83.5434 37.0186 83.5434 37.6687C83.5434 38.3187 83.7608 38.8611 84.1956 39.296C84.6304 39.7308 85.1751 39.9482 85.8295 39.9482C86.4839 39.9482 87.0286 39.7308 87.4634 39.296C87.8982 38.8611 88.1156 38.3187 88.1156 37.6687C88.1156 37.0186 87.8982 36.4762 87.4634 36.0414C87.0286 35.6065 86.4839 35.3891 85.8295 35.3891ZM85.8295 39.3289C85.3595 39.3289 84.973 39.1752 84.67 38.8677C84.3669 38.5559 84.2154 38.1562 84.2154 37.6687C84.2154 37.1811 84.3669 36.7836 84.67 36.4762C84.973 36.1644 85.3595 36.0084 85.8295 36.0084C86.2995 36.0084 86.686 36.1644 86.989 36.4762C87.2921 36.7836 87.4436 37.1811 87.4436 37.6687C87.4436 38.1562 87.2921 38.5559 86.989 38.8677C86.686 39.1752 86.2995 39.3289 85.8295 39.3289ZM91.4956 38.1957V37.5764H93.3074V37.6094C93.3074 38.3736 93.09 38.9666 92.6552 39.3882C92.2687 39.7615 91.7701 39.9482 91.1596 39.9482C90.5491 39.9482 90.0506 39.7484 89.6641 39.3487C89.2293 38.9007 89.0119 38.3473 89.0119 37.6884C89.0119 37.359 89.0712 37.0516 89.1898 36.7661C89.3083 36.4762 89.4621 36.2368 89.6509 36.048C89.8486 35.8503 90.0901 35.6922 90.3756 35.5736C90.6655 35.4506 90.9752 35.3891 91.3046 35.3891C91.7394 35.3891 92.1215 35.4814 92.4509 35.6658C92.754 35.8371 92.9912 36.0567 93.1625 36.3247L92.6288 36.7002C92.4707 36.4806 92.2906 36.3137 92.0886 36.1995C91.8734 36.0721 91.6142 36.0084 91.3112 36.0084C90.8412 36.0084 90.4547 36.16 90.1516 36.463C90.0067 36.608 89.8925 36.7902 89.8091 37.0098C89.7256 37.2295 89.6839 37.4578 89.6839 37.695C89.6839 38.165 89.8354 38.5625 90.1385 38.8875C90.4152 39.1818 90.7819 39.3289 91.2387 39.3289C91.6296 39.3289 91.9568 39.1993 92.2203 38.9402C92.4356 38.7294 92.5585 38.4812 92.5893 38.1957H91.4956ZM95.0865 35.4682H94.4145V39.8626H95.0865V35.4682ZM98.84 36.127L98.2998 36.4433C98.2558 36.3378 98.1899 36.2456 98.1021 36.1665C97.9703 36.0611 97.8122 36.0084 97.6277 36.0084C97.4301 36.0084 97.2764 36.0589 97.1666 36.16C97.0612 36.261 97.0085 36.3862 97.0085 36.5355C97.0085 36.7639 97.1666 36.9418 97.4828 37.0691L97.9242 37.247C98.6138 37.5281 98.9586 37.9586 98.9586 38.5383C98.9586 38.9556 98.8246 39.296 98.5567 39.5595C98.2932 39.8186 97.955 39.9482 97.5421 39.9482C97.1161 39.9482 96.7713 39.8011 96.5077 39.5068C96.2925 39.2652 96.1696 38.9797 96.1388 38.6503L96.8042 38.5054C96.8042 38.7162 96.8657 38.9029 96.9887 39.0654C97.1292 39.2411 97.3203 39.3289 97.5619 39.3289C97.7683 39.3289 97.9396 39.2608 98.0758 39.1247C98.2163 38.9885 98.2866 38.8106 98.2866 38.591C98.2866 38.389 98.2273 38.2331 98.1087 38.1233C97.9945 38.0135 97.843 37.919 97.6541 37.84L97.2325 37.6621C96.6351 37.4117 96.3364 37.0406 96.3364 36.5487C96.3364 36.2324 96.4506 35.9601 96.679 35.7317C96.9118 35.5033 97.2259 35.3891 97.6212 35.3891C97.9769 35.3891 98.2712 35.488 98.504 35.6856C98.6401 35.8086 98.7521 35.9557 98.84 36.127ZM101.153 36.1007H102.161V35.4682H99.4731V36.1007H100.481V39.8626H101.153V36.1007ZM103.016 35.4682H103.688V39.8626H103.016V35.4682ZM107.066 36.0084C107.501 36.0084 107.898 36.1709 108.258 36.496V35.7054C107.929 35.4945 107.538 35.3891 107.085 35.3891C106.431 35.3891 105.902 35.5802 105.498 35.9623C105.028 36.4059 104.793 36.9791 104.793 37.6818C104.793 38.3495 105.028 38.9029 105.498 39.3421C105.924 39.7462 106.442 39.9482 107.053 39.9482C107.487 39.9482 107.889 39.8384 108.258 39.6188V38.8216C107.902 39.1598 107.507 39.3289 107.072 39.3289C106.607 39.3289 106.222 39.173 105.919 38.8611C105.616 38.5449 105.465 38.1518 105.465 37.6818C105.465 37.1943 105.612 36.7946 105.906 36.4828C106.205 36.1665 106.591 36.0084 107.066 36.0084ZM111.79 36.127L111.25 36.4433C111.206 36.3378 111.14 36.2456 111.052 36.1665C110.921 36.0611 110.762 36.0084 110.578 36.0084C110.38 36.0084 110.227 36.0589 110.117 36.16C110.011 36.261 109.959 36.3862 109.959 36.5355C109.959 36.7639 110.117 36.9418 110.433 37.0691L110.874 37.247C111.564 37.5281 111.909 37.9586 111.909 38.5383C111.909 38.9556 111.775 39.296 111.507 39.5595C111.243 39.8186 110.905 39.9482 110.492 39.9482C110.066 39.9482 109.722 39.8011 109.458 39.5068C109.243 39.2652 109.12 38.9797 109.089 38.6503L109.754 38.5054C109.754 38.7162 109.816 38.9029 109.939 39.0654C110.08 39.2411 110.271 39.3289 110.512 39.3289C110.719 39.3289 110.89 39.2608 111.026 39.1247C111.167 38.9885 111.237 38.8106 111.237 38.591C111.237 38.389 111.178 38.2331 111.059 38.1233C110.945 38.0135 110.793 37.919 110.604 37.84L110.183 37.6621C109.585 37.4117 109.287 37.0406 109.287 36.5487C109.287 36.2324 109.401 35.9601 109.629 35.7317C109.862 35.5033 110.176 35.3891 110.571 35.3891C110.927 35.3891 111.221 35.488 111.454 35.6856C111.59 35.8086 111.702 35.9557 111.79 36.127ZM26.5097 24.2157V19L5.64693 39.8628H26.5097V36.5686H14.1567L26.5097 24.2157ZM26.5099 32.1765V35.4707H17.451L20.4706 32.1765H26.5099Z" fill="black"/>
</svg>
