<svg width="200" height="100" viewBox="0 0 200 100" fill="none" xmlns="http://www.w3.org/2000/svg">
<g clip-path="url(#clip0_2557_124261)">
<path d="M85.1421 45.3049V55.2544H93.1197V53.5234L87.3397 53.5384V51.0849H93.1197V49.3539L87.3397 49.3389V47.0359H93.1197V45.3049H85.1421Z" fill="black"/>
<path d="M103.069 55.2544V45.2899H105.176V55.2544H103.069Z" fill="black"/>
<path d="M75.5836 45.2899L78.0672 53.0719L80.6863 45.2899H83.772V55.2544H81.755V47.7886L79.151 55.2544H76.9684L74.5149 47.7886V55.2544H72.4829V45.2899H75.5836Z" fill="black"/>
<path d="M96.9729 47.0661H93.7969V45.2899H102.392V47.0661H99.0802V55.2544H96.9729V47.0661Z" fill="black"/>
<path d="M127.001 45.3049V55.2544H134.979V53.5234H129.199V51.0849H134.979V49.3539L129.199 49.3389V47.0359H134.979V45.3049H127.001Z" fill="black"/>
<path d="M148.421 47.0661H145.245V45.2899H153.839V47.0661H150.528V55.2544H148.421V47.0661Z" fill="black"/>
<path d="M113.32 52.4397L109.225 45.2899H106.576V55.2544H108.729L108.638 47.7133L112.928 55.2544H115.352V45.2899H113.214L113.32 52.4397Z" fill="black"/>
<path d="M121.207 52.7106L118.226 45.2899H115.833L120.183 55.2544H122.366L126.505 45.2899H124.277L121.207 52.7106Z" fill="black"/>
<path d="M141.798 49.4593H139.028C138.155 49.4593 137.719 49.0981 137.719 48.3756C137.719 47.4725 138.215 47.0661 139.329 47.0661H144.507V45.2899H139.028C137.809 45.2899 136.921 45.5308 136.379 46.0275C135.807 46.5091 135.536 47.2918 135.536 48.3455C135.536 50.3324 136.56 51.2054 138.863 51.2054H141.346C142.43 51.2054 142.821 51.5215 142.821 52.3494C142.821 53.1622 142.385 53.4783 141.196 53.4783H135.943V55.2544H141.527C143.935 55.2544 145.019 54.3212 145.019 52.259C145.019 51.2505 144.778 50.528 144.281 50.1066C143.77 49.6701 142.942 49.4593 141.798 49.4593Z" fill="black"/>
<path d="M62.5638 41.6924C62.5638 41.6924 61.2543 41.1506 61.0737 41.0753C60.893 41 60.7124 40.985 60.5167 41.0301C60.3211 41.0753 60.1856 41.1807 60.1103 41.2559C60.0351 41.3312 57.2203 44.1459 57.2203 44.1459C57.2203 44.1459 54.4357 41.3613 54.3454 41.271C54.2551 41.1807 54.1497 41.0903 53.9239 41.0301C53.6981 40.9699 53.5025 41.0151 53.382 41.0753C53.2616 41.1205 52.0575 41.6322 51.8919 41.6924C51.7263 41.7526 51.5758 41.8881 51.4704 42.0537C51.3952 42.1892 51.335 42.3397 51.335 42.5203C51.335 42.3547 51.335 46.4338 51.335 46.4338L53.9239 47.924V44.5222L55.1281 45.7264C55.2184 45.8167 55.3238 45.8769 55.4442 45.9221C55.5345 45.9522 55.6098 45.9823 55.7452 45.9823C55.8807 45.9823 58.6804 45.9823 58.6804 45.9823C58.7857 45.9823 58.8911 45.9672 58.9814 45.9221C59.0868 45.8769 59.1922 45.8167 59.3126 45.6963C59.433 45.5759 60.5017 44.5072 60.5017 44.5072V47.9089L63.0906 46.4188C63.0906 46.4188 63.0906 42.9267 63.0906 42.5354C63.1057 42.1289 62.8799 41.8279 62.5638 41.6924Z" fill="black"/>
<path d="M47.0151 50.1217C47.0151 50.1217 47.1958 51.5215 47.2259 51.7172C47.256 51.9129 47.3312 52.0784 47.4667 52.2289C47.6022 52.3795 47.7677 52.4397 47.8731 52.4698C47.9785 52.4999 51.8168 53.5234 51.8168 53.5234C51.8168 53.5234 50.7932 57.3316 50.7631 57.437C50.733 57.5574 50.7029 57.6929 50.7631 57.9186C50.8233 58.1444 50.9738 58.2949 51.0792 58.3702C51.1846 58.4455 52.2232 59.2432 52.3586 59.3486C52.4941 59.454 52.6898 59.5292 52.8855 59.5292C53.036 59.5292 53.2016 59.4991 53.3521 59.4088C53.2016 59.4991 56.7388 57.452 56.7388 57.452V54.4567L53.7886 56.1575L54.2251 54.5018C54.2552 54.3814 54.2552 54.261 54.2401 54.1255C54.2251 54.0201 54.21 53.9599 54.1348 53.8245C54.0595 53.7041 52.6597 51.2807 52.6597 51.2807C52.5995 51.1904 52.5393 51.1151 52.464 51.0549C52.3737 50.9796 52.2683 50.9194 52.1027 50.8743C51.9522 50.8291 50.4771 50.4377 50.4771 50.4377L53.4273 48.7369L50.8384 47.2467C50.8384 47.2467 47.8129 48.9927 47.4667 49.1884C47.1205 49.4142 46.97 49.7755 47.0151 50.1217Z" fill="black"/>
<path d="M62.082 59.3635C62.082 59.3635 63.2109 58.5056 63.3614 58.3851C63.5119 58.2647 63.6173 58.1142 63.6775 57.9336C63.7377 57.7379 63.7076 57.5723 63.6926 57.467C63.6625 57.3616 62.6389 53.5233 62.6389 53.5233C62.6389 53.5233 66.4471 52.4998 66.5675 52.4697C66.6879 52.4396 66.8234 52.3944 66.989 52.2288C67.1546 52.0633 67.2148 51.8676 67.2298 51.7321C67.2449 51.5966 67.4104 50.3022 67.4405 50.1366C67.4706 49.956 67.4405 49.7603 67.3352 49.5947C67.2599 49.4592 67.1545 49.3388 67.004 49.2485C67.1545 49.3388 63.6173 47.2917 63.6173 47.2917L61.0283 48.7819L63.9786 50.4828L62.3228 50.9193C62.2024 50.9494 62.097 51.0096 61.9917 51.0849C61.9164 51.1451 61.8562 51.2053 61.796 51.3257C61.7207 51.4461 60.3209 53.8695 60.3209 53.8695C60.2757 53.9598 60.2306 54.0501 60.2155 54.1555C60.2005 54.2759 60.2005 54.3963 60.2456 54.5469C60.2908 54.6974 60.6821 56.1725 60.6821 56.1725L57.7319 54.4716V57.467C57.7319 57.467 60.7574 59.213 61.1036 59.4087C61.4348 59.6194 61.8111 59.5743 62.082 59.3635Z" fill="black"/>
</g>
<defs>
<clipPath id="clip0_2557_124261">
<rect width="106.84" height="18.5442" fill="white" transform="translate(47 41)"/>
</clipPath>
</defs>
</svg>
