<svg width="200" height="100" viewBox="0 0 200 100" fill="none" xmlns="http://www.w3.org/2000/svg">
<path d="M80.9395 42.0675C82.7515 41.8442 84.6817 42.1623 86.201 43.2146C87.5144 44.1276 88.4396 45.4982 88.7951 47.0578C89.2458 48.9952 89.0102 51.1365 87.9437 52.8414C87.1126 54.1616 85.8307 55.1355 84.336 55.5823C82.6556 56.0963 80.8517 56.0349 79.2101 55.4079C77.9808 54.9381 76.9254 54.1019 76.1868 53.0127C75.1385 51.4597 74.8082 49.4887 75.1141 47.6563C75.37 46.0789 76.1562 44.5636 77.4053 43.5501C78.4046 42.7221 79.6578 42.2316 80.9395 42.0675V42.0675ZM80.9772 43.5603C79.931 43.7999 79.0347 44.5086 78.4637 45.4059C77.5042 46.9048 77.2717 48.7963 77.6419 50.5196C77.91 51.7534 78.5402 52.9668 79.5966 53.6949C80.7702 54.5371 82.3874 54.6768 83.7069 54.1099C84.6144 53.7285 85.3384 52.9882 85.7932 52.1266C86.4835 50.8265 86.667 49.298 86.4672 47.8501C86.2571 46.4653 85.6361 45.0633 84.4798 44.218C83.4897 43.4828 82.1651 43.2809 80.9772 43.5603V43.5603ZM91.0455 43.4022C92.0407 42.3387 93.5702 41.9339 94.9896 42.0471C95.8528 42.099 96.6788 42.4168 97.3543 42.9566C97.4379 43.0362 97.6031 43.1239 97.5164 43.2625C97.2696 43.8937 96.9964 44.5137 96.7363 45.1398L96.3917 45.0052C96.314 44.7338 96.1827 44.4808 96.0057 44.261C95.8286 44.0413 95.6094 43.8591 95.3608 43.7255C94.6307 43.3533 93.6834 43.3492 93.0023 43.8336C92.3242 44.2904 91.9908 45.2264 92.2885 46.0004C92.4659 46.4919 92.8748 46.8538 93.3082 47.1169C94.076 47.5911 94.9764 47.7746 95.7707 48.1968C96.6344 48.6424 97.4725 49.244 97.9416 50.1178C98.4005 50.9591 98.3852 51.9849 98.0966 52.8791C97.9131 53.4231 97.6215 53.9244 97.2393 54.3529C96.8572 54.7813 96.3923 55.1281 95.8727 55.3722C94.7204 55.9381 93.3734 55.984 92.1376 55.7046C91.1964 55.4915 90.2971 55.0266 89.6557 54.2944C89.8739 53.5623 90.0799 52.8261 90.2971 52.094L90.6856 52.2204C90.8722 53.1707 91.6512 53.8927 92.5353 54.2169C93.351 54.5147 94.3085 54.6146 95.0916 54.1823C96.098 53.6347 96.5018 52.2133 95.9073 51.2252C95.4923 50.6042 94.8071 50.2392 94.1484 49.9312C93.0706 49.452 91.8755 49.1155 91.018 48.2651C89.7291 46.9966 89.8219 44.6962 91.0455 43.4022V43.4022Z" fill="black"/>
<path d="M66.6512 42.2094C67.992 42.2247 69.3553 42.0585 70.6809 42.3399C71.6078 42.5439 72.5163 42.9905 73.1088 43.7552C73.9245 44.8035 74.001 46.3248 73.4147 47.4975C72.8671 48.5987 71.7496 49.3329 70.5596 49.5603C71.6965 50.9103 72.7855 52.2991 73.8909 53.6828C74.9931 54.989 76.2239 56.232 77.7279 57.0722C78.7476 57.6432 79.9223 57.9899 81.1 57.8961C81.1826 58.0674 81.2662 58.2377 81.3488 58.406C79.9396 58.8485 78.3917 59.0015 76.9642 58.5457C75.5356 58.1113 74.3365 57.1538 73.2791 56.1178C71.8943 54.7066 70.6962 53.1291 69.4746 51.5782C68.8822 50.8328 68.2826 50.0946 67.678 49.3512C67.7269 49.2248 67.7799 49.0983 67.8258 48.9719C68.8832 48.9454 70.0079 48.6884 70.7829 47.9288C71.7873 46.9754 71.8597 45.1614 70.8318 44.2029C69.8509 43.3984 68.4866 43.4524 67.2905 43.4952C67.2742 47.1661 67.2905 50.8298 67.2813 54.4965C67.2385 54.9299 67.522 55.2878 67.6759 55.6702H64.4966C64.6536 55.403 64.8453 55.1552 64.9718 54.8718C64.9957 54.5804 65.0018 54.2879 64.9901 53.9959V43.5839C65.0299 43.0894 64.7138 42.6795 64.5598 42.2349C65.2562 42.2492 65.9517 42.1931 66.6512 42.2094ZM99.2808 42.2349H102.486C102.33 42.6071 102.055 42.9579 102.085 43.381C102.092 44.9523 102.085 46.5237 102.085 48.095H109.172V43.3769C109.219 42.9283 108.847 42.605 108.662 42.2359C109.731 42.2288 110.803 42.2359 111.869 42.2359C111.71 42.6071 111.435 42.9589 111.461 43.382C111.466 47.1209 111.466 50.8576 111.461 54.5924C111.451 54.989 111.714 55.3153 111.856 55.6671H108.665C108.832 55.3143 109.193 55.0176 109.17 54.5985V49.5256H102.086V54.5975C102.074 54.9931 102.34 55.3174 102.482 55.6681H99.287C99.4552 55.3174 99.809 55.0206 99.7968 54.6077C99.7927 51.0694 99.7907 47.5304 99.7907 43.9908C99.8023 43.6848 99.7965 43.3784 99.7734 43.0731C99.6408 42.7763 99.4389 42.5163 99.2808 42.2349ZM113.194 42.2359H121.471C121.258 42.8477 121.05 43.4595 120.834 44.0775C120.377 43.9439 119.939 43.745 119.474 43.6451C118.292 43.6227 117.109 43.6451 115.927 43.637V48.1235H120.086C120.293 48.1181 120.498 48.0886 120.698 48.0358C120.512 48.5283 120.34 49.027 120.162 49.5225H115.931V54.2365H119.879C120.602 54.2702 121.273 53.9479 121.97 53.8082C121.766 54.4272 121.54 55.042 121.33 55.66H113.234C113.377 55.2409 113.632 54.8442 113.614 54.3833C113.607 50.7461 113.614 47.109 113.614 43.4728C113.586 43.0374 113.325 42.6519 113.194 42.2359ZM122.866 42.238C123.712 42.2298 124.559 42.238 125.405 42.2329C127.929 45.0288 130.444 47.8305 132.951 50.6381V43.381C132.989 42.9324 132.619 42.6071 132.43 42.2359H135.227C135.076 42.6132 134.794 42.9619 134.807 43.3861V56.0179C131.68 52.5734 128.553 49.1296 125.426 45.6865V54.0846C125.415 54.3499 125.422 54.6156 125.448 54.8799C125.55 55.1522 125.685 55.4061 125.808 55.6692H123.049C123.226 55.3204 123.564 55.0196 123.568 54.6056V43.689C123.625 43.1077 123.098 42.7203 122.866 42.238ZM64 57.6575H72.7866C73.0598 57.8768 73.4494 58.0399 73.4779 58.4406C70.3169 58.46 67.1559 58.4406 64 58.4488V57.6575ZM83.1883 57.6596C100.441 57.6555 117.693 57.6555 134.945 57.6596V58.4488H83.8042C83.6064 58.2958 83.4079 58.1442 83.2087 57.994C83.2005 57.8829 83.1944 57.7707 83.1883 57.6596Z" fill="black"/>
</svg>
