<svg width="200" height="100" viewBox="0 0 200 100" fill="none" xmlns="http://www.w3.org/2000/svg">
<path fill-rule="evenodd" clip-rule="evenodd" d="M52.2547 41.3905H63.192V52.3277H52.2547V48.1211H48.8894V52.3277V55.693H52.2547H63.192H66.5573V52.3277V41.3905V38.0251H63.192H52.2547H48.8894V41.3905V43.0731H52.2547V41.3905Z" fill="black"/>
<path fill-rule="evenodd" clip-rule="evenodd" d="M46.3653 47.2799H57.3026V51.4865H60.6679V47.2799V43.9146H57.3026H46.3653H43V47.2799V58.2171V61.5824H46.3653H57.3026H60.6679V58.2171V56.5345H57.3026V58.2171H46.3653V47.2799Z" fill="black"/>
<path d="M73.8778 47.5382C73.9545 48.0915 74.1051 48.505 74.3297 48.7789C74.7405 49.2773 75.4443 49.5265 76.4412 49.5265C77.0383 49.5265 77.523 49.4608 77.8955 49.3294C78.602 49.0774 78.9554 48.6091 78.9554 47.9244C78.9554 47.5245 78.7801 47.2151 78.4295 46.996C78.0789 46.7824 77.5285 46.5934 76.7781 46.4291L75.4964 46.1415C74.2366 45.8567 73.3657 45.5472 72.8837 45.2131C72.0675 44.6544 71.6594 43.7808 71.6594 42.5922C71.6594 41.5076 72.0538 40.6066 72.8426 39.8891C73.6313 39.1715 74.7898 38.8127 76.318 38.8127C77.5942 38.8127 78.6815 39.1523 79.5798 39.8315C80.4836 40.5053 80.9573 41.4857 81.0011 42.7729H78.5692C78.5254 42.0444 78.2077 41.5268 77.6161 41.2201C77.2218 41.0174 76.7315 40.9161 76.1454 40.9161C75.4936 40.9161 74.9733 41.0475 74.5844 41.3104C74.1955 41.5734 74.001 41.9403 74.001 42.4114C74.001 42.8441 74.1927 43.1673 74.5762 43.3809C74.8226 43.5233 75.3485 43.6903 76.1537 43.8821L78.2405 44.3833C79.1553 44.6023 79.8454 44.8954 80.311 45.2624C81.034 45.832 81.3955 46.6564 81.3955 47.7354C81.3955 48.8418 80.971 49.762 80.122 50.496C79.2785 51.2245 78.0844 51.5888 76.5398 51.5888C74.9623 51.5888 73.7217 51.23 72.8179 50.5125C71.9142 49.7894 71.4623 48.7981 71.4623 47.5382H73.8778ZM82.9112 45.3199C82.9112 43.2056 83.4781 41.5761 84.6119 40.4313C85.5978 39.4344 86.8522 38.936 88.375 38.936C90.4127 38.936 91.9023 39.6042 92.8446 40.9407C93.3649 41.6911 93.6442 42.4443 93.6825 43.2001H91.1518C90.9877 42.6195 90.7766 42.1813 90.5191 41.8856C90.0593 41.3597 89.3774 41.0968 88.4734 41.0968C87.5534 41.0968 86.8274 41.4693 86.2961 42.2142C85.7648 42.9536 85.4993 44.0026 85.4993 45.361C85.4993 46.7194 85.7787 47.7381 86.3373 48.4174C86.9014 49.0911 87.6161 49.428 88.4819 49.428C89.369 49.428 90.0455 49.1377 90.5111 48.5571C90.7686 48.2448 90.9823 47.7765 91.1518 47.1521H93.6577C93.439 48.4721 92.8774 49.5457 91.9738 50.3728C91.0752 51.1999 89.9222 51.6134 88.5147 51.6134C86.7727 51.6134 85.4034 51.0547 84.4065 49.9373C83.4097 48.8145 82.9112 47.2753 82.9112 45.3199ZM95.7488 51.2766V39.166H98.2547V43.7835H102.987V39.166H105.501V51.2766H102.987V45.8704H98.2547V51.2766H95.7488ZM109.745 39.166L111.347 46.1004L111.692 48.0312L112.045 46.1415L113.409 39.166H116.079L117.517 46.1004L117.887 48.0312L118.256 46.1744L119.875 39.166H122.447L119.037 51.2766H116.621L115.159 44.1943L114.732 41.8527L114.305 44.1943L112.842 51.2766H110.492L107.058 39.166H109.745ZM126.542 46.7002H129.615L128.103 41.9349L126.542 46.7002ZM126.698 39.166H129.558L133.846 51.2766H131.102L130.322 48.7871H125.86L125.022 51.2766H122.377L126.698 39.166ZM138.09 41.2694V44.5229H140.957C141.527 44.5229 141.954 44.4572 142.239 44.3258C142.743 44.0957 142.995 43.6411 142.995 42.9619C142.995 42.2279 142.751 41.7349 142.264 41.483C141.99 41.3406 141.579 41.2694 141.031 41.2694H138.09ZM141.557 39.166C142.406 39.1825 143.058 39.2865 143.513 39.4782C143.973 39.67 144.362 39.952 144.679 40.3245C144.942 40.6312 145.15 40.9708 145.303 41.3433C145.457 41.7158 145.534 42.1402 145.534 42.6168C145.534 43.1919 145.388 43.7588 145.098 44.3175C144.808 44.8707 144.329 45.2624 143.66 45.4924C144.219 45.717 144.614 46.0374 144.844 46.4537C145.079 46.8645 145.197 47.4944 145.197 48.3434V49.1568C145.197 49.71 145.219 50.0852 145.263 50.2824C145.328 50.5946 145.481 50.8247 145.722 50.9726V51.2766H142.937C142.861 51.0082 142.806 50.7918 142.773 50.6275C142.707 50.2879 142.672 49.9401 142.666 49.5841L142.65 48.4585C142.639 47.6861 142.496 47.1713 142.223 46.9138C141.954 46.6564 141.448 46.5276 140.703 46.5276H138.09V51.2766H135.617V39.166H141.557ZM147.033 49.1404L153.286 41.3104H147.189V39.166H156.441V41.1954L150.106 49.1404H156.457V51.2766H147.033V49.1404Z" fill="black"/>
<path d="M71.4047 54.8963H72.6699V59.8629H75.6689V60.9516H71.4047V54.8963ZM84.2744 60.0478C84.7756 60.0478 85.1728 59.8629 85.4656 59.4932C85.7613 59.1235 85.9094 58.5976 85.9094 57.9157C85.9094 57.2365 85.7613 56.7121 85.4656 56.3423C85.1728 55.9699 84.7756 55.7836 84.2744 55.7836C83.7732 55.7836 83.3734 55.9685 83.0748 56.3382C82.7763 56.7079 82.6271 57.2338 82.6271 57.9157C82.6271 58.5976 82.7763 59.1235 83.0748 59.4932C83.3734 59.8629 83.7732 60.0478 84.2744 60.0478ZM87.1748 57.9157C87.1748 59.003 86.8694 59.8355 86.2586 60.4134C85.8013 60.8845 85.1396 61.12 84.2744 61.12C83.4089 61.12 82.7475 60.8845 82.2902 60.4134C81.6767 59.8355 81.37 59.003 81.37 57.9157C81.37 56.8065 81.6767 55.974 82.2902 55.418C82.7475 54.947 83.4089 54.7114 84.2744 54.7114C85.1396 54.7114 85.8013 54.947 86.2586 55.418C86.8694 55.974 87.1748 56.8065 87.1748 57.9157ZM97.2631 56.786C97.1672 56.3725 96.9333 56.0835 96.5606 55.9192C96.3524 55.8288 96.121 55.7836 95.8665 55.7836C95.379 55.7836 94.9777 55.9685 94.6626 56.3382C94.3505 56.7052 94.1944 57.2584 94.1944 57.9979C94.1944 58.7428 94.3644 59.27 94.7038 59.5795C95.0433 59.889 95.4295 60.0437 95.8623 60.0437C96.2868 60.0437 96.6347 59.9218 96.906 59.6781C97.1769 59.4316 97.3439 59.1098 97.407 58.7127H96.0062V57.7021H98.5285V60.9516H97.6905L97.5631 60.1957C97.3195 60.4832 97.1004 60.6859 96.906 60.8037C96.5716 61.0091 96.161 61.1118 95.6735 61.1118C94.8708 61.1118 94.2138 60.8338 93.7014 60.2778C93.1676 59.7191 92.9004 58.955 92.9004 57.9855C92.9004 57.0051 93.1701 56.2191 93.7098 55.6275C94.2491 55.036 94.9625 54.7402 95.8501 54.7402C96.6195 54.7402 97.2371 54.936 97.7027 55.3277C98.1709 55.7165 98.4393 56.2026 98.5079 56.786H97.2631ZM105.947 60.9516H104.69V54.8963H105.947V60.9516ZM113.094 59.0824C113.132 59.359 113.208 59.5658 113.32 59.7027C113.525 59.9519 113.877 60.0765 114.376 60.0765C114.674 60.0765 114.917 60.0437 115.103 59.9779C115.456 59.852 115.633 59.6178 115.633 59.2755C115.633 59.0756 115.545 58.9208 115.37 58.8113C115.194 58.7045 114.919 58.61 114.544 58.5278L113.903 58.384C113.273 58.2416 112.838 58.0869 112.597 57.9198C112.189 57.6405 111.985 57.2037 111.985 56.6093C111.985 56.0671 112.182 55.6166 112.576 55.2578C112.971 54.899 113.55 54.7196 114.314 54.7196C114.952 54.7196 115.496 54.8895 115.945 55.2291C116.397 55.5659 116.634 56.0561 116.656 56.6997H115.44C115.418 56.3355 115.259 56.0767 114.963 55.9233C114.766 55.822 114.521 55.7713 114.228 55.7713C113.902 55.7713 113.642 55.837 113.447 55.9685C113.253 56.1 113.155 56.2834 113.155 56.519C113.155 56.7353 113.251 56.8969 113.443 57.0037C113.566 57.0749 113.829 57.1585 114.232 57.2543L115.275 57.5049C115.733 57.6145 116.078 57.761 116.31 57.9445C116.672 58.2293 116.853 58.6415 116.853 59.181C116.853 59.7342 116.641 60.1943 116.216 60.5613C115.794 60.9256 115.197 61.1077 114.425 61.1077C113.636 61.1077 113.016 60.9283 112.564 60.5695C112.112 60.208 111.886 59.7123 111.886 59.0824H113.094ZM127.237 54.8963V55.9685H125.425V60.9516H124.152V55.9685H122.332V54.8963H127.237ZM134.187 60.9516H132.93V54.8963H134.187V60.9516ZM140.155 57.9732C140.155 56.9161 140.439 56.1013 141.006 55.5289C141.499 55.0305 142.126 54.7813 142.887 54.7813C143.906 54.7813 144.651 55.1154 145.122 55.7836C145.382 56.1588 145.522 56.5354 145.541 56.9133H144.276C144.194 56.623 144.088 56.404 143.959 56.2561C143.729 55.9931 143.389 55.8617 142.936 55.8617C142.477 55.8617 142.114 56.0479 141.848 56.4204C141.582 56.7901 141.449 57.3146 141.449 57.9938C141.449 58.6729 141.589 59.1824 141.868 59.522C142.151 59.8588 142.508 60.0272 142.941 60.0272C143.384 60.0272 143.723 59.8821 143.955 59.5918C144.084 59.4357 144.191 59.2015 144.276 58.8893H145.528C145.419 59.5494 145.139 60.0861 144.687 60.4997C144.237 60.9132 143.661 61.12 142.957 61.12C142.086 61.12 141.401 60.8406 140.903 60.2819C140.404 59.7205 140.155 58.9509 140.155 57.9732ZM152.462 59.0824C152.501 59.359 152.576 59.5658 152.688 59.7027C152.893 59.9519 153.246 60.0765 153.744 60.0765C154.042 60.0765 154.285 60.0437 154.471 59.9779C154.824 59.852 155.001 59.6178 155.001 59.2755C155.001 59.0756 154.913 58.9208 154.738 58.8113C154.563 58.7045 154.288 58.61 153.912 58.5278L153.272 58.384C152.641 58.2416 152.206 58.0869 151.965 57.9198C151.557 57.6405 151.353 57.2037 151.353 56.6093C151.353 56.0671 151.55 55.6166 151.944 55.2578C152.339 54.899 152.918 54.7196 153.682 54.7196C154.32 54.7196 154.864 54.8895 155.313 55.2291C155.765 55.5659 156.002 56.0561 156.024 56.6997H154.808C154.786 56.3355 154.627 56.0767 154.331 55.9233C154.134 55.822 153.889 55.7713 153.596 55.7713C153.27 55.7713 153.01 55.837 152.816 55.9685C152.621 56.1 152.524 56.2834 152.524 56.519C152.524 56.7353 152.62 56.8969 152.811 57.0037C152.935 57.0749 153.198 57.1585 153.6 57.2543L154.643 57.5049C155.101 57.6145 155.446 57.761 155.679 57.9445C156.04 58.2293 156.221 58.6415 156.221 59.181C156.221 59.7342 156.009 60.1943 155.584 60.5613C155.163 60.9256 154.566 61.1077 153.793 61.1077C153.005 61.1077 152.384 60.9283 151.932 60.5695C151.48 60.208 151.255 59.7123 151.255 59.0824H152.462Z" fill="black"/>
</svg>
