<svg width="200" height="100" viewBox="0 0 200 100" fill="none" xmlns="http://www.w3.org/2000/svg">
<path d="M71.1252 50.3065C65.3386 50.3065 60.748 47.3032 60.748 43.5557C60.748 39.908 65.3161 37.0046 71.0253 37.0046C76.8602 37.0046 81.3283 39.908 81.3283 43.6813C81.3315 47.329 76.7603 50.3065 71.1252 50.3065ZM77.0085 39.9337C77.0085 38.793 74.278 37.8489 70.9511 37.8489C67.6984 37.8489 65.1162 38.793 65.1162 40.0079C65.1162 40.778 66.3573 41.5224 68.543 41.8929L68.6913 41.9187C69.0395 39.5116 70.0098 37.9488 71.1252 37.9488C72.1439 37.9488 73.1368 39.6598 73.4592 41.9187C75.6707 41.5965 77.0085 40.8263 77.0085 39.9337ZM79.8647 43.3591C79.8647 42.2925 79.4682 41.2485 78.6978 40.3075V40.4558C78.6978 41.822 76.612 43.0852 73.6816 43.5073L73.6075 43.5331V43.6072C73.6075 46.4107 73.0111 48.3731 71.8699 49.5138C76.4154 49.2141 79.8647 46.5589 79.8647 43.3591ZM62.2374 43.3333C62.2374 46.5589 65.5901 49.1142 70.258 49.5138C69.1394 48.4214 68.5462 46.5363 68.5462 43.7297V43.5299L68.4205 43.5041C65.3934 42.908 63.4044 41.793 63.4044 40.401C63.4044 40.3752 63.4044 40.3527 63.4302 40.2753C62.6339 41.2001 62.2374 42.2667 62.2374 43.3333ZM72.5179 41.9703C72.2439 40.3559 71.7474 39.5116 71.0511 39.5116C70.4063 39.5116 69.8583 40.4558 69.5875 42.0186L69.6874 42.0444C70.1097 42.0702 70.5804 42.0927 71.0769 42.0927C71.5475 42.0927 71.9956 42.0444 72.4179 42.0444H72.5404L72.5179 41.9703ZM71.2252 43.7071C70.5804 43.7071 70.0098 43.6813 69.5617 43.633H69.4876C69.5617 45.9144 70.2065 47.4547 71.1027 47.4547C71.9215 47.4547 72.592 45.8403 72.6662 43.633C72.1439 43.7071 71.9698 43.7071 71.2252 43.7071Z" fill="black"/>
<path d="M91.2348 40.8265H88.2818V48.37H86.1703V40.8265H83.2915V39.0381H91.2348V40.8265V40.8265Z" fill="black"/>
<path d="M96.6183 48.7436C93.8878 48.7436 91.7021 46.5589 91.7021 43.8038C91.7021 41.0229 93.9362 38.764 96.6667 38.764C99.3488 38.764 101.609 41.0229 101.609 43.7039C101.609 46.5105 99.3972 48.7436 96.6183 48.7436ZM96.6925 40.6523C95.0548 40.6523 93.9362 41.8929 93.9362 43.7554C93.9104 45.6405 95.0032 46.8586 96.6441 46.8586C98.2592 46.8586 99.3263 45.618 99.3263 43.7329C99.323 41.8929 98.256 40.6523 96.6925 40.6523Z" fill="black"/>
<path d="M107.537 44.9476V48.3729H105.403V44.9218L101.702 39.041H104.158L106.466 42.9626L108.874 39.041H111.308L107.537 44.9476Z" fill="black"/>
<path d="M116.222 48.7436C113.492 48.7436 111.306 46.5589 111.306 43.8038C111.306 41.0229 113.54 38.764 116.271 38.764C118.953 38.764 121.209 41.0229 121.209 43.7039C121.213 46.5105 119.001 48.7436 116.222 48.7436ZM116.296 40.6523C114.659 40.6523 113.54 41.8929 113.54 43.7554C113.514 45.6405 114.607 46.8586 116.245 46.8586C117.86 46.8586 118.927 45.618 118.927 43.7329C118.927 41.8929 117.86 40.6523 116.296 40.6523Z" fill="black"/>
<path d="M129.623 40.8265H126.667V48.37H124.558V40.8265H121.68V39.0381H129.623V40.8265Z" fill="black"/>
<path d="M139.079 48.37H136.796L136.003 46.3109H132.028L131.258 48.37H128.972L132.721 39.0381H135.329L139.079 48.37ZM132.647 44.6482H135.352L134.011 41.0746L132.647 44.6482Z" fill="black"/>
<path d="M60.9092 52.2656V62.996H139.252V52.2656H60.9092ZM69.6938 60.3054H68.4398V56.1775H68.4237L67.2374 60.3054H66.0091L64.884 56.1775H64.8679V60.3054H63.6139V54.9563H65.6867L66.6506 58.5943H66.6668L67.6919 54.9563H69.6971V60.3054H69.6938ZM73.8234 60.3054L73.4849 59.1195H71.728L71.3766 60.3054H70.1065L71.8118 54.9531H73.5107L75.1838 60.3054H73.8234ZM78.7751 55.8456H77.3405V60.3086H76.051V55.8456H74.6165V54.9563H78.7719V55.8456H78.7751ZM82.6339 60.3054H79.2038V54.9563H82.5662V55.778H80.4933V57.0959H82.405V57.9176H80.4933V59.4804H82.6339V60.3054V60.3054ZM85.9511 60.3054C85.7802 59.9799 85.8157 59.6158 85.8157 59.2678C85.8157 58.6297 85.8834 58.0884 84.8937 58.0884H84.5617V60.3054H83.2722V54.9563H85.6513C86.5314 54.9563 87.0923 55.4461 87.0923 56.358C87.0923 57.0411 86.786 57.5503 85.9479 57.6695V57.6856C86.2283 57.7146 87.0665 57.7758 87.0665 58.7393C87.0665 59.0809 87.0923 60.0895 87.2116 60.3118H85.9511V60.3054ZM89.1619 60.3054H87.8724V54.9563H89.1619V60.3054ZM93.3238 60.3054L92.982 59.1195H91.2251L90.8737 60.3054H89.6036L91.3089 54.9531H93.0078L94.6809 60.3054H93.3238ZM98.3431 60.3054H95.1258V54.9563H96.4153V59.4192H98.3431V60.3054ZM104.555 60.3054H103.266V57.9176H101.789V60.3054H100.5V54.9563H101.789V57.0991H103.266V54.9563H104.555V60.3054ZM108.753 60.3054L108.411 59.1195H106.654L106.302 60.3054H105.032L106.738 54.9531H108.437L110.11 60.3054H108.753ZM115.152 60.3054H113.453L111.77 56.3902H111.754V60.3054H110.551V54.9563H112.292L113.93 58.662H113.946V54.9563H115.148V60.3054H115.152ZM118.192 60.3054H116.093V54.9563H118.243C119.932 54.9563 120.248 55.9359 120.248 57.6018C120.245 58.4235 120.393 60.3054 118.192 60.3054ZM124.333 60.3054H121.116V54.9563H122.405V59.4192H124.333V60.3054ZM126.016 60.3054H124.726V54.9563H126.016V60.3054ZM131.535 60.3054H129.836L128.156 56.3902H128.14V60.3054H126.938V54.9563H128.678L130.316 58.662H130.332V54.9563H131.535V60.3054ZM136.544 56.5997H135.264C135.274 56.1034 135.181 55.6652 134.497 55.6652C133.694 55.6652 133.694 56.6061 133.694 57.6437C133.694 59.3193 133.881 59.6158 134.616 59.6158C134.829 59.6158 135.061 59.5707 135.255 59.5127V58.3268H134.555V57.5052H136.544V60.2184C136.193 60.2764 135.316 60.3956 134.803 60.3956C132.637 60.3956 132.389 59.6158 132.389 57.5857C132.389 56.2355 132.466 54.8661 134.575 54.8661C135.835 54.8661 136.622 55.4815 136.544 56.5997Z" fill="black"/>
<path d="M85.1321 55.7781H84.5615V57.2668H85.1321C85.6447 57.2668 85.7898 56.8221 85.7898 56.4805C85.7898 55.9714 85.5415 55.7781 85.1321 55.7781Z" fill="black"/>
<path d="M118.047 55.7781H117.379V59.4838H118.002C118.788 59.4838 118.94 58.9714 118.94 57.6309C118.94 56.6449 118.94 55.7781 118.047 55.7781Z" fill="black"/>
<path d="M92.0696 55.9844L91.4829 58.298H92.7112L92.089 55.9844H92.0696Z" fill="black"/>
<path d="M107.498 55.9844L106.908 58.298H108.136L107.514 55.9844H107.498Z" fill="black"/>
<path d="M72.5691 55.9844L71.9824 58.298H73.2107L72.5885 55.9844H72.5691Z" fill="black"/>
</svg>
